<svg xmlns="http://www.w3.org/2000/svg" viewBox="0 0 64 64" xmlns:v="https://vecta.io/nano"><path d="M42.23 46.232c14.047-2.364 18.734-9.9 20.117-19.726.776-5.46.697-9.927-.878-15.313 0 0-1.185 1.016-2.38 2.425l-1.806 2.13c-4.686-6.643-9.9-9.712-15.85-8.794s-7.133 4.81-10.582 10.696c-.19-.007-.97-.5-1.73-1.094-1.426-1.115-5.473-3.013-5.473-3.013 1.134 7.108 3.98 14.288 8.513 19.12 3.077 3.176 7.316 4.028 5.272 8.304-.912 1.907-4.373 1.573-5.327 1.582-.473.004-1.217.235-1.654.51-2.425 3.942 4.377 4.418 11.777 3.172z" fill="#ebe7e7" stroke="#b62525" stroke-width="2.214" stroke-linejoin="round"/><path d="M8.13 24.098v.005A7.55 7.55 0 0 0 .58 31.653a7.55 7.55 0 0 0 7.549 7.547c1.526 0 2.946-.456 4.135-1.237h9.408a4.52 4.52 0 0 0 4.518-4.518 4.52 4.52 0 0 0-4.518-4.518h-6.508c-1.092-2.824-3.826-4.828-7.036-4.828zm27.07 13.92l-12.494 4.028v6.245l12.494 2.685zM8.6 51.448v3.402h1.995L9.56 58.308h2.685l1.04-3.458h3.6l1.04 3.458h2.685l-1.04-3.458h1.53v-3.402z" fill="#214378"/><path d="M29.608 37.326H.072v14.772h29.537z" fill="#37abc8"/><path d="M35.075 19.044c.876-1.938 1.78-3.835 4.73-2.73m6.42-.858c2.54-2.016 4.207-1.66 5.38.037m-11.68 8.063c3.783 2.094 7.052.7 10.13-1.966" stroke="#b62525" fill="none" stroke-width="1.107" stroke-linecap="round"/></svg>