<?xml version="1.0" encoding="UTF-8"?>
<svg version="1.1" viewBox="0 0 1280 720" xmlns="http://www.w3.org/2000/svg">
  <g transform="translate(0 -106.5)">
    <rect y="106.5" width="1280" height="720"/>
    <g transform="matrix(6.264 0 0 6.264 439.5 193.3)">
      <path d="m42.23 46.23c14.05-2.364 18.73-9.9 20.12-19.73 0.776-5.46 0.697-9.927-0.878-15.31 0 0-1.185 1.016-2.38 2.425l-1.806 2.13c-4.686-6.643-9.9-9.712-15.85-8.794s-7.133 4.81-10.58 10.7c-0.19-7e-3 -0.97-0.5-1.73-1.094-1.426-1.115-5.473-3.013-5.473-3.013 1.134 7.108 3.98 14.29 8.513 19.12 3.077 3.176 7.316 4.028 5.272 8.304-0.912 1.907-4.373 1.573-5.327 1.582-0.473 4e-3 -1.217 0.235-1.654 0.51-2.425 3.942 4.377 4.418 11.78 3.172z" fill="#ebe7e7" stroke="#b62525" stroke-linejoin="round" stroke-width="2.214"/>
      <path d="m8.13 24.1v5e-3a7.55 7.55 0 0 0-7.55 7.55 7.55 7.55 0 0 0 7.549 7.547c1.526 0 2.946-0.456 4.135-1.237h9.408a4.52 4.52 0 0 0 4.518-4.518 4.52 4.52 0 0 0-4.518-4.518h-6.508c-1.092-2.824-3.826-4.828-7.036-4.828zm27.07 13.92-12.49 4.028v6.245l12.49 2.685zm-26.6 13.43v3.402h1.995l-1.035 3.458h2.685l1.04-3.458h3.6l1.04 3.458h2.685l-1.04-3.458h1.53v-3.402z" fill="#214378"/>
      <path d="m29.61 37.33h-29.54v14.77h29.54z" fill="#37abc8"/>
      <path d="m35.08 19.04c0.876-1.938 1.78-3.835 4.73-2.73m6.42-0.858c2.54-2.016 4.207-1.66 5.38 0.037m-11.68 8.063c3.783 2.094 7.052 0.7 10.13-1.966" fill="none" stroke="#b62525" stroke-linecap="round" stroke-width="1.107"/>
    </g>
    <g fill="#000000" font-family="'Noto Mono'" letter-spacing="0px" text-anchor="middle" word-spacing="0px">
      <text x="641.35284" y="664.88068" font-size="52.28px" stroke-width="1.307" text-align="center" style="line-height:1.25" xml:space="preserve"><tspan x="641.35284" y="664.88068" fill="#ffffff" font-family="sans-serif" stroke-width="1.307" text-align="center" text-anchor="middle">Chargement du stream...</tspan></text>
      <text x="640.435" y="713.97107" font-size="28.88px" stroke-width=".7219" text-align="center" style="line-height:1.25" xml:space="preserve"><tspan x="640.435" y="713.97107" fill="#ffffff" font-family="sans-serif" stroke-width=".7219" text-align="center" text-anchor="middle" style="line-height:6.25">Si cela prend trop de temps,</tspan></text>
      <text x="640.435" y="749.17523" font-size="28.88px" stroke-width=".7219" text-align="center" style="line-height:1.25" xml:space="preserve"><tspan x="640.435" y="749.17523" fill="#ffffff" font-family="sans-serif" stroke-width=".7219" text-align="center" text-anchor="middle"> le stream est potentiellement inactif.</tspan></text>
    </g>
  </g>
</svg>
